<mxfile host="app.diagrams.net" modified="2022-07-30T09:32:58.145Z" agent="5.0 (Macintosh; Intel Mac OS X 10_15_7) AppleWebKit/537.36 (KHTML, like Gecko) Chrome/103.0.0.0 Safari/537.36" etag="3OG3eJeGZYigLSHyhgVg" version="20.2.0" type="github">
  <diagram id="Nmei-vcHodhDumYnsx_v" name="Page-1">
    <mxGraphModel dx="728" dy="521" grid="1" gridSize="10" guides="1" tooltips="1" connect="1" arrows="1" fold="1" page="1" pageScale="1" pageWidth="850" pageHeight="1100" math="0" shadow="0">
      <root>
        <mxCell id="0" />
        <mxCell id="1" parent="0" />
        <mxCell id="B-BC4zBYSyrH33y2kuey-11" value="" style="shape=card;whiteSpace=wrap;html=1;rotation=90;" vertex="1" parent="1">
          <mxGeometry x="240" y="220" width="80" height="160" as="geometry" />
        </mxCell>
        <mxCell id="B-BC4zBYSyrH33y2kuey-14" value="&lt;ul style=&quot;color: rgb(0, 0, 0); font-family: Helvetica; font-size: 12px; font-style: normal; font-variant-ligatures: normal; font-variant-caps: normal; font-weight: 400; letter-spacing: normal; orphans: 2; text-align: center; text-indent: 0px; text-transform: none; widows: 2; word-spacing: 0px; -webkit-text-stroke-width: 0px; background-color: rgb(248, 249, 250); text-decoration-thickness: initial; text-decoration-style: initial; text-decoration-color: initial;&quot;&gt;&lt;li&gt;机会1&lt;/li&gt;&lt;li&gt;机会2&lt;/li&gt;&lt;li&gt;……&lt;/li&gt;&lt;/ul&gt;" style="text;whiteSpace=wrap;html=1;fontSize=20;" vertex="1" parent="1">
          <mxGeometry x="210" y="271" width="100" height="70" as="geometry" />
        </mxCell>
        <mxCell id="B-BC4zBYSyrH33y2kuey-9" value="" style="shape=card;whiteSpace=wrap;html=1;rotation=90;" vertex="1" parent="1">
          <mxGeometry x="480" y="220" width="80" height="160" as="geometry" />
        </mxCell>
        <mxCell id="B-BC4zBYSyrH33y2kuey-10" value="&lt;ul style=&quot;color: rgb(0, 0, 0); font-family: Helvetica; font-size: 12px; font-style: normal; font-variant-ligatures: normal; font-variant-caps: normal; font-weight: 400; letter-spacing: normal; orphans: 2; text-align: center; text-indent: 0px; text-transform: none; widows: 2; word-spacing: 0px; -webkit-text-stroke-width: 0px; background-color: rgb(248, 249, 250); text-decoration-thickness: initial; text-decoration-style: initial; text-decoration-color: initial;&quot;&gt;&lt;li&gt;威胁1&lt;/li&gt;&lt;li&gt;威胁2&lt;/li&gt;&lt;li&gt;……&lt;/li&gt;&lt;/ul&gt;" style="text;whiteSpace=wrap;html=1;fontSize=20;" vertex="1" parent="1">
          <mxGeometry x="450" y="271" width="100" height="70" as="geometry" />
        </mxCell>
        <mxCell id="B-BC4zBYSyrH33y2kuey-5" value="" style="shape=card;whiteSpace=wrap;html=1;rotation=90;" vertex="1" parent="1">
          <mxGeometry x="480" y="120" width="80" height="160" as="geometry" />
        </mxCell>
        <mxCell id="B-BC4zBYSyrH33y2kuey-8" value="&lt;ul style=&quot;color: rgb(0, 0, 0); font-family: Helvetica; font-size: 12px; font-style: normal; font-variant-ligatures: normal; font-variant-caps: normal; font-weight: 400; letter-spacing: normal; orphans: 2; text-align: center; text-indent: 0px; text-transform: none; widows: 2; word-spacing: 0px; -webkit-text-stroke-width: 0px; background-color: rgb(248, 249, 250); text-decoration-thickness: initial; text-decoration-style: initial; text-decoration-color: initial;&quot;&gt;&lt;li&gt;劣势1&lt;/li&gt;&lt;li&gt;劣势2&lt;/li&gt;&lt;li&gt;……&lt;/li&gt;&lt;/ul&gt;" style="text;whiteSpace=wrap;html=1;fontSize=20;" vertex="1" parent="1">
          <mxGeometry x="450" y="171" width="100" height="70" as="geometry" />
        </mxCell>
        <mxCell id="B-BC4zBYSyrH33y2kuey-1" value="" style="shape=card;whiteSpace=wrap;html=1;rotation=90;" vertex="1" parent="1">
          <mxGeometry x="240" y="120" width="80" height="160" as="geometry" />
        </mxCell>
        <mxCell id="B-BC4zBYSyrH33y2kuey-2" value="&lt;b&gt;&lt;font style=&quot;font-size: 20px;&quot;&gt;S&lt;/font&gt;&lt;/b&gt;" style="shape=card;whiteSpace=wrap;html=1;fillColor=#d5e8d4;strokeColor=#82b366;" vertex="1" parent="1">
          <mxGeometry x="140" y="160" width="60" height="80" as="geometry" />
        </mxCell>
        <mxCell id="B-BC4zBYSyrH33y2kuey-3" value="&lt;font style=&quot;font-size: 14px;&quot;&gt;&lt;b&gt;优势 Strengths&lt;br&gt;&lt;/b&gt;&lt;/font&gt;" style="text;html=1;strokeColor=none;fillColor=none;align=center;verticalAlign=middle;whiteSpace=wrap;rounded=0;" vertex="1" parent="1">
          <mxGeometry x="215" y="164" width="110" height="26" as="geometry" />
        </mxCell>
        <mxCell id="B-BC4zBYSyrH33y2kuey-4" value="&lt;meta charset=&quot;utf-8&quot;&gt;&lt;ul style=&quot;color: rgb(0, 0, 0); font-family: Helvetica; font-size: 12px; font-style: normal; font-variant-ligatures: normal; font-variant-caps: normal; font-weight: 400; letter-spacing: normal; orphans: 2; text-align: center; text-indent: 0px; text-transform: none; widows: 2; word-spacing: 0px; -webkit-text-stroke-width: 0px; background-color: rgb(248, 249, 250); text-decoration-thickness: initial; text-decoration-style: initial; text-decoration-color: initial;&quot;&gt;&lt;li&gt;优势1&lt;/li&gt;&lt;li&gt;优势2&lt;/li&gt;&lt;li&gt;……&lt;/li&gt;&lt;/ul&gt;" style="text;whiteSpace=wrap;html=1;fontSize=20;" vertex="1" parent="1">
          <mxGeometry x="210" y="171" width="100" height="70" as="geometry" />
        </mxCell>
        <mxCell id="B-BC4zBYSyrH33y2kuey-6" value="&lt;span style=&quot;font-size: 20px;&quot;&gt;&lt;b&gt;W&lt;/b&gt;&lt;/span&gt;" style="shape=card;whiteSpace=wrap;html=1;fillColor=#dae8fc;strokeColor=#6c8ebf;" vertex="1" parent="1">
          <mxGeometry x="380" y="160" width="60" height="80" as="geometry" />
        </mxCell>
        <mxCell id="B-BC4zBYSyrH33y2kuey-7" value="&lt;font style=&quot;font-size: 14px;&quot;&gt;&lt;b&gt;劣势 Weaknesses&lt;br&gt;&lt;/b&gt;&lt;/font&gt;" style="text;html=1;strokeColor=none;fillColor=none;align=center;verticalAlign=middle;whiteSpace=wrap;rounded=0;" vertex="1" parent="1">
          <mxGeometry x="450" y="163" width="125" height="26" as="geometry" />
        </mxCell>
        <mxCell id="B-BC4zBYSyrH33y2kuey-12" value="&lt;span style=&quot;font-size: 20px;&quot;&gt;&lt;b&gt;O&lt;/b&gt;&lt;/span&gt;" style="shape=card;whiteSpace=wrap;html=1;fillColor=#ffe6cc;strokeColor=#d79b00;" vertex="1" parent="1">
          <mxGeometry x="140" y="260" width="60" height="80" as="geometry" />
        </mxCell>
        <mxCell id="B-BC4zBYSyrH33y2kuey-13" value="&lt;font style=&quot;font-size: 14px;&quot;&gt;&lt;b&gt;机会 Opportunities&lt;br&gt;&lt;/b&gt;&lt;/font&gt;" style="text;html=1;strokeColor=none;fillColor=none;align=center;verticalAlign=middle;whiteSpace=wrap;rounded=0;" vertex="1" parent="1">
          <mxGeometry x="202" y="263" width="135" height="26" as="geometry" />
        </mxCell>
        <mxCell id="B-BC4zBYSyrH33y2kuey-15" value="&lt;span style=&quot;font-size: 20px;&quot;&gt;&lt;b&gt;T&lt;/b&gt;&lt;/span&gt;" style="shape=card;whiteSpace=wrap;html=1;fillColor=#e1d5e7;strokeColor=#9673a6;" vertex="1" parent="1">
          <mxGeometry x="380" y="260" width="60" height="80" as="geometry" />
        </mxCell>
        <mxCell id="B-BC4zBYSyrH33y2kuey-16" value="&lt;font style=&quot;font-size: 14px;&quot;&gt;&lt;b&gt;威胁 Threats&lt;br&gt;&lt;/b&gt;&lt;/font&gt;" style="text;html=1;strokeColor=none;fillColor=none;align=center;verticalAlign=middle;whiteSpace=wrap;rounded=0;" vertex="1" parent="1">
          <mxGeometry x="450" y="263" width="125" height="26" as="geometry" />
        </mxCell>
      </root>
    </mxGraphModel>
  </diagram>
</mxfile>
